# xmcd
#
# Track frame offsets: 
#        150
#        17062
#        32062
#        48675
#        61585
#        77290
#        89675
#        110347
#        122887
#        137705
#
# Disc length: 2031 seconds
#
# Revision: 2
# Processed by: cddbd v1.5.2PL0 Copyright (c) Steve Scherf et al.
# Submitted via: ExactAudioCopy v0.95b3
#
DISCID=7d07ed0a
DTITLE=Rachel Matkin - Living Beyond Our Dreams
DYEAR=1995
DGENRE=Country
TTITLE0=Living Beyond Our Dreams
TTITLE1=She Fell in Love with a Cowboy
TTITLE2=So, So Long
TTITLE3=Over You Now
TTITLE4=Waiting for You
TTITLE5=This Don't Look Like Love
TTITLE6=Over the Hardest Part
TTITLE7=Horseshoe Turn
TTITLE8=Evangeline
TTITLE9=Lifeline
EXTD=
EXTT0=
EXTT1=
EXTT2=
EXTT3=
EXTT4=
EXTT5=
EXTT6=
EXTT7=
EXTT8=
EXTT9=
PLAYORDER=
